<?xml version="1.0" standalone="no"?>
<!DOCTYPE svg PUBLIC "-//W3C//DTD SVG 20010904//EN"
 "http://www.w3.org/TR/2001/REC-SVG-20010904/DTD/svg10.dtd">
<svg version="1.0" xmlns="http://www.w3.org/2000/svg"
 width="689.000000pt" height="285.000000pt" viewBox="0 0 689.000000 285.000000"
 preserveAspectRatio="xMidYMid meet">

<g transform="translate(0.000000,285.000000) scale(0.100000,-0.100000)"
fill="#000000" stroke="none">
<path d="M3220 2223 c-71 -11 -72 -11 -51 -32 16 -16 18 -26 10 -67 -20 -106
-114 -398 -137 -426 l-24 -28 73 0 c69 0 71 1 56 18 -19 21 -21 60 -6 115 l10
38 30 -22 c39 -27 73 -27 109 0 33 24 33 24 49 -46 11 -45 10 -55 -4 -77 l-17
-26 96 0 95 0 -22 33 c-12 18 -55 144 -96 280 l-74 247 -36 -1 c-20 -1 -47 -3
-61 -6z m55 -234 c19 -63 35 -120 35 -126 0 -9 -22 -13 -75 -13 -41 0 -75 3
-75 8 0 13 73 252 77 249 1 -2 18 -55 38 -118z"/>
<path d="M5590 2220 c-8 -5 -79 -10 -157 -10 l-143 0 20 -20 c19 -19 20 -33
20 -249 0 -191 -2 -231 -15 -241 -29 -24 -14 -30 77 -30 l91 0 -21 23 c-20 21
-22 34 -22 135 0 62 3 112 7 112 3 0 15 -7 25 -17 27 -24 77 -19 107 11 l26
26 -83 0 -82 0 0 105 c0 86 3 106 16 113 26 14 54 4 117 -45 l59 -44 -7 58
c-9 72 -15 85 -35 73z"/>
<path d="M4916 2204 c-167 -61 -234 -280 -133 -432 67 -99 195 -131 305 -76
132 65 189 253 119 390 -30 60 -58 86 -117 113 -52 24 -118 26 -174 5z m113
-29 c62 -53 99 -237 71 -353 -17 -73 -62 -132 -99 -132 -71 0 -128 100 -138
245 -7 99 13 179 58 230 37 42 66 45 108 10z"/>
<path d="M2580 2190 c19 -19 20 -33 20 -247 0 -221 -1 -227 -22 -251 l-23 -24
155 4 c136 3 160 7 197 26 121 63 104 215 -27 249 l-35 10 41 21 c75 39 94
129 39 184 -37 37 -90 48 -234 48 l-131 0 20 -20z m249 -36 c13 -17 21 -41 21
-67 0 -42 -29 -101 -55 -111 -23 -8 -18 -20 15 -39 44 -26 63 -70 57 -131 -4
-40 -11 -55 -36 -78 -27 -24 -40 -29 -74 -26 l-42 3 -3 225 c-1 123 0 230 2
237 3 8 23 13 50 13 36 0 48 -5 65 -26z"/>
<path d="M3573 2198 c31 -24 37 -68 37 -261 0 -174 -2 -195 -20 -225 -11 -18
-20 -35 -20 -37 0 -3 31 -5 69 -5 l68 0 -19 39 c-16 32 -21 69 -25 190 -4 98
-3 151 4 151 5 0 57 -88 114 -195 57 -107 108 -195 114 -195 5 0 28 11 50 23
l40 23 5 225 c4 193 8 229 23 252 l17 27 -71 0 -72 0 19 -21 c16 -18 19 -40
22 -148 2 -69 2 -148 0 -176 l-3 -49 -105 197 -105 197 -79 0 c-66 0 -77 -2
-63 -12z"/>
<path d="M4120 2190 c19 -19 20 -33 20 -247 0 -219 -1 -227 -22 -250 l-21 -23
98 0 99 0 -22 20 c-20 19 -22 30 -22 133 l0 112 68 -119 c74 -131 103 -156
177 -156 54 0 73 13 41 28 -22 10 -87 106 -166 245 l-33 58 39 57 c49 72 113
142 139 153 13 5 -11 8 -65 8 -55 1 -80 -3 -71 -8 19 -12 -2 -61 -76 -174
l-53 -82 0 111 c0 111 7 135 40 147 8 3 -31 6 -87 6 l-103 1 20 -20z"/>
<path d="M1708 1643 c-194 -279 -357 -514 -362 -522 -8 -16 273 265 779 777
l249 252 -156 0 -157 0 -353 -507z"/>
<path d="M1910 1584 c-417 -363 -537 -470 -490 -437 82 58 929 689 943 702 14
14 17 30 15 79 l-3 61 -465 -405z"/>
<path d="M1307 1793 c-4 -3 -7 -155 -7 -337 0 -281 2 -328 14 -316 16 18 456
650 456 656 0 7 -456 4 -463 -3z"/>
<path d="M2074 1542 c-160 -103 -386 -248 -502 -322 -116 -74 -210 -136 -208
-137 1 -1 110 33 241 76 132 43 360 117 508 165 l267 87 0 160 c0 87 -3 159
-7 158 -5 0 -139 -84 -299 -187z"/>
<path d="M3780 1564 c-47 -7 -87 -13 -90 -13 -2 -1 6 -8 18 -17 16 -11 22 -25
22 -52 0 -58 -124 -449 -151 -478 l-22 -24 76 0 77 0 -20 20 c-24 24 -25 40
-4 109 l15 52 30 -26 c38 -31 66 -32 112 -1 l35 24 11 -41 c18 -72 17 -99 -5
-121 -14 -15 -5 -16 96 -16 l111 0 -26 23 c-22 18 -41 70 -110 295 -46 151
-85 275 -87 276 -1 1 -41 -4 -88 -10z m53 -259 c20 -66 37 -123 37 -127 0 -5
-36 -8 -80 -8 -52 0 -80 4 -80 11 0 26 74 259 80 252 4 -5 23 -62 43 -128z"/>
<path d="M2870 1560 c-8 -5 -47 -10 -86 -10 -99 0 -168 -35 -206 -105 -56
-102 -32 -144 134 -237 60 -33 113 -69 118 -79 19 -35 11 -66 -27 -99 -31 -28
-42 -31 -76 -27 -50 7 -85 40 -100 94 l-11 43 -33 -57 c-30 -53 -31 -59 -16
-75 34 -37 191 -56 243 -29 81 43 129 109 130 180 0 45 -41 84 -160 150 -52
29 -103 60 -112 69 -44 38 5 119 79 129 34 4 51 0 87 -21 25 -14 50 -34 55
-44 8 -13 10 -5 10 33 -1 71 -10 97 -29 85z"/>
<path d="M3021 1531 l24 -19 0 -247 0 -247 -24 -19 c-23 -19 -23 -19 84 -19
l108 0 -27 21 -26 20 0 240 0 240 25 24 24 25 -106 0 c-105 0 -105 0 -82 -19z"/>
<path d="M3307 1538 c30 -14 35 -35 35 -132 -1 -139 3 -127 -42 -120 -21 4
-61 3 -87 -1 l-48 -7 28 -24 c35 -30 79 -31 118 -3 l29 20 1 -23 c0 -13 0 -70
0 -128 -2 -93 -4 -107 -22 -122 -20 -17 -17 -18 87 -18 87 1 105 3 89 12 -11
6 -23 16 -27 22 -4 6 -8 119 -8 251 0 132 4 245 8 251 4 6 16 16 27 22 16 9
-4 11 -95 11 -89 0 -110 -3 -93 -11z"/>
<path d="M4161 1531 l24 -19 0 -247 0 -247 -24 -19 c-23 -19 -22 -19 163 -19
l186 0 0 62 0 63 -31 -38 c-17 -21 -44 -44 -59 -52 -35 -18 -91 -20 -108 -3
-9 9 -12 78 -12 250 l0 239 25 24 24 25 -106 0 c-105 0 -105 0 -82 -19z"/>
<path d="M4575 1538 c11 -6 23 -16 27 -22 4 -6 8 -120 8 -253 0 -230 -1 -244
-20 -263 l-20 -20 108 0 c93 0 104 2 82 13 l-25 13 -3 239 c-1 132 0 249 2
261 3 11 16 26 28 32 18 8 -1 11 -92 11 -91 0 -111 -2 -95 -11z"/>
<path d="M4848 1543 c7 -3 20 -19 29 -36 15 -27 17 -64 18 -232 0 -208 -8
-264 -43 -285 -12 -7 9 -9 72 -10 85 0 88 1 67 18 -30 24 -42 106 -39 263 l3
134 109 -205 c60 -113 113 -210 119 -217 7 -9 20 -7 57 12 l48 24 3 233 c4
219 5 235 26 271 l22 37 -76 0 c-73 0 -75 -1 -60 -18 26 -28 37 -111 37 -266
-1 -128 -2 -139 -16 -121 -8 11 -61 107 -117 212 l-102 193 -85 -1 c-47 0 -79
-3 -72 -6z"/>
<path d="M5425 1538 c11 -6 23 -16 27 -22 4 -6 8 -120 8 -253 0 -230 -1 -244
-20 -263 l-20 -20 108 0 c85 1 103 3 87 12 -11 6 -23 16 -27 22 -4 6 -8 119
-8 251 0 132 4 245 8 251 4 6 16 16 27 22 16 9 -4 11 -95 11 -91 0 -111 -2
-95 -11z"/>
<path d="M1735 1161 l-290 -96 284 -3 c157 -1 289 2 293 6 5 5 7 49 6 98 l-3
90 -290 -95z"/>
<path d="M2610 750 c16 -33 30 -73 30 -90 0 -16 5 -30 10 -30 6 0 10 16 10 35
0 20 11 58 25 85 28 55 29 60 15 60 -5 0 -19 -21 -31 -47 l-21 -48 -22 47
c-11 26 -27 48 -34 48 -8 0 -2 -21 18 -60z"/>
<path d="M2761 793 c-27 -22 -38 -83 -21 -122 26 -65 114 -59 137 9 30 92 -49
168 -116 113z m89 -22 c15 -29 12 -83 -6 -109 -33 -47 -94 -13 -94 53 0 17 7
41 16 53 20 28 69 30 84 3z"/>
<path d="M2930 737 c0 -83 11 -104 56 -113 25 -5 37 -1 53 15 18 18 21 33 21
96 0 43 -4 75 -10 75 -6 0 -10 -29 -10 -66 0 -77 -12 -104 -45 -104 -33 0 -45
27 -45 104 0 37 -4 66 -10 66 -6 0 -10 -31 -10 -73z"/>
<path d="M3119 803 c-4 -33 0 -165 5 -170 3 -4 6 10 6 30 0 32 3 37 23 37 17
0 28 -10 40 -35 9 -19 21 -35 27 -35 14 0 13 7 -7 42 -17 28 -17 30 0 42 24
18 23 72 -2 86 -23 12 -91 14 -92 3z m86 -48 c0 -28 -3 -30 -35 -30 -32 0 -35
3 -38 33 -3 33 -3 33 35 30 35 -3 38 -5 38 -33z"/>
<path d="M3340 720 c0 -53 4 -90 10 -90 6 0 10 37 10 90 0 53 -4 90 -10 90 -6
0 -10 -37 -10 -90z"/>
<path d="M3419 808 c-7 -15 -5 -178 1 -178 5 0 10 33 12 72 l3 73 43 -73 c24
-39 47 -72 52 -72 6 0 10 40 10 92 0 68 -3 89 -11 81 -7 -7 -10 -35 -7 -72 2
-34 2 -61 -1 -61 -3 0 -24 32 -45 70 -33 59 -51 80 -57 68z"/>
<path d="M3580 798 c0 -7 12 -48 26 -91 18 -55 30 -77 41 -75 19 4 77 178 59
178 -7 0 -20 -31 -30 -68 -10 -38 -21 -74 -25 -81 -5 -7 -17 19 -31 68 -12 45
-27 81 -31 81 -5 0 -9 -6 -9 -12z"/>
<path d="M3750 720 l0 -90 53 2 c50 1 50 2 10 5 -42 4 -43 5 -43 39 0 32 2 34
35 34 19 0 35 5 35 10 0 6 -16 10 -35 10 -32 0 -35 2 -35 30 0 28 2 30 40 30
22 0 40 5 40 10 0 6 -22 10 -50 10 l-50 0 0 -90z"/>
<path d="M3914 803 c-16 -11 -25 -46 -16 -59 4 -6 26 -21 50 -33 23 -12 42
-27 42 -34 0 -33 -53 -50 -78 -25 -13 13 -27 5 -18 -10 11 -19 68 -23 93 -6
38 24 28 64 -22 90 -26 13 -41 28 -43 44 -4 21 -1 23 38 17 29 -4 40 -2 37 6
-4 14 -67 21 -83 10z"/>
<path d="M4035 800 c3 -5 15 -10 26 -10 17 0 19 -7 19 -80 0 -47 4 -80 10 -80
6 0 10 33 10 80 0 83 2 87 48 81 6 -1 12 3 12 9 0 6 -27 10 -66 10 -41 0 -63
-4 -59 -10z"/>
<path d="M4200 720 c0 -105 18 -123 22 -22 l3 67 20 -54 c11 -30 25 -56 31
-58 5 -2 19 23 30 54 l19 58 3 -67 c4 -101 22 -83 22 22 0 110 -17 121 -45 30
-10 -34 -22 -63 -26 -66 -7 -4 -49 95 -49 116 0 6 -7 10 -15 10 -12 0 -15 -17
-15 -90z"/>
<path d="M4410 720 l0 -90 53 2 c50 1 50 2 10 5 -42 4 -43 5 -43 39 0 32 2 34
35 34 19 0 35 5 35 10 0 6 -16 10 -35 10 -32 0 -35 2 -35 30 0 28 2 30 40 30
22 0 40 5 40 10 0 6 -22 10 -50 10 l-50 0 0 -90z"/>
<path d="M4560 720 c0 -53 4 -90 10 -90 6 0 10 31 10 73 l0 72 41 -72 c56
-100 69 -97 69 17 0 53 -4 90 -10 90 -6 0 -10 -33 -10 -77 l0 -78 -46 78 c-24
42 -49 77 -54 77 -6 0 -10 -39 -10 -90z"/>
<path d="M4730 800 c0 -5 11 -10 25 -10 25 0 25 -1 25 -80 0 -47 4 -80 10 -80
6 0 10 33 10 80 0 83 2 87 48 81 6 -1 12 3 12 9 0 6 -27 10 -65 10 -37 0 -65
-4 -65 -10z"/>
<path d="M4957 803 c-4 -3 -7 -44 -7 -90 l0 -83 53 0 c29 0 58 5 65 12 17 17
15 53 -3 68 -11 9 -13 16 -5 24 17 17 11 55 -9 66 -22 11 -84 14 -94 3z m88
-23 c14 -22 -6 -50 -36 -50 -26 0 -29 3 -29 30 0 27 3 30 29 30 17 0 33 -5 36
-10z m-11 -70 c47 -17 27 -70 -26 -70 -26 0 -28 3 -28 40 0 43 8 48 54 30z"/>
<path d="M5132 720 c-17 -49 -26 -90 -21 -90 5 0 14 11 19 25 8 20 16 25 45
25 29 0 36 -4 41 -25 3 -14 12 -25 19 -25 9 0 4 26 -19 90 -17 49 -36 90 -43
90 -6 0 -25 -40 -41 -90z m68 -7 c0 -7 -11 -13 -25 -13 -28 0 -31 13 -14 57
l11 28 14 -30 c7 -16 13 -36 14 -42z"/>
<path d="M5280 721 c0 -54 4 -91 10 -91 6 0 10 31 10 73 l1 72 41 -72 c57 -99
68 -96 68 17 0 53 -4 90 -10 90 -6 0 -10 -33 -10 -77 l0 -78 -43 74 c-59 104
-67 103 -67 -8z"/>
<path d="M5467 803 c-4 -3 -7 -44 -7 -90 0 -67 3 -83 15 -83 10 0 15 10 15 28
0 16 6 37 14 47 14 19 15 18 33 -13 28 -52 41 -68 48 -60 4 3 -5 26 -19 51
-32 54 -32 58 0 96 16 20 21 31 12 31 -7 0 -30 -21 -50 -46 l-38 -47 0 47 c0
43 -7 55 -23 39z"/>
</g>
</svg>
